# Blender v2.79 (sub 0) OBJ File: ''
# www.blender.org
mtllib jct1.mtl
o Cube.000_Cube.005
v 52.490414 -76.768906 198.140564
v 52.490414 152.020706 197.804642
v -52.490326 -76.768929 198.140594
v -52.490326 152.020706 197.804626
v -52.490391 -190.123108 1.443952
v 52.490349 -190.123123 1.443967
v -52.490391 38.288208 0.471183
v 52.490349 38.288204 0.471183
v -52.490391 -76.768890 -196.847153
v -52.490391 152.020752 -196.511230
v 52.490349 -76.768929 -196.847122
v 52.490349 152.020752 -196.511169
vn 0.0000 0.0015 1.0000
vn 1.0000 0.0000 0.0000
vn 0.0000 0.0015 -1.0000
vn -0.0000 0.8660 0.5000
vn -1.0000 0.0000 0.0000
vn 0.0000 0.8664 -0.4993
vn 0.0000 -0.8664 0.4993
vn -0.0000 -0.8682 -0.4963
usemtl Material.001
s off
f 3//1 1//1 2//1 4//1
f 6//2 11//2 12//2 8//2
f 11//3 9//3 10//3 12//3
f 8//4 12//4 10//4 7//4
f 9//5 5//5 7//5 10//5
f 2//6 8//6 7//6 4//6
f 2//2 1//2 6//2 8//2
f 3//5 4//5 7//5 5//5
f 3//7 5//7 6//7 1//7
f 9//8 11//8 6//8 5//8
